<?xml version="1.0" standalone="no"?>
<!DOCTYPE svg PUBLIC "-//W3C//DTD SVG 20010904//EN"
 "http://www.w3.org/TR/2001/REC-SVG-20010904/DTD/svg10.dtd">
<svg version="1.0" xmlns="http://www.w3.org/2000/svg"
 width="400.000000pt" height="100.000000pt" viewBox="0 0 400.000000 100.000000"
 preserveAspectRatio="xMidYMid meet">
<metadata>
Created by potrace 1.12, written by Peter Selinger 2001-2015
</metadata>
<g transform="translate(0.000000,100.000000) scale(0.100000,-0.100000)"
fill="#000000" stroke="none">
<path d="M517 585 c-54 -80 -97 -147 -97 -150 0 -3 29 -5 65 -5 47 0 65 -4 65
-13 0 -7 -11 -51 -25 -98 -13 -46 -25 -88 -25 -93 0 -6 47 60 105 145 l106
154 -66 3 c-36 2 -65 7 -65 12 0 5 9 48 20 96 11 48 19 88 17 90 -2 2 -47 -61
-100 -141z"/>
</g>
</svg>
